<?xml version="1.0" encoding="utf-8"?>
<!-- Generator: Adobe Illustrator 28.1.0, SVG Export Plug-In . SVG Version: 6.00 Build 0)  -->
<svg version="1.1" xmlns="http://www.w3.org/2000/svg" xmlns:xlink="http://www.w3.org/1999/xlink" x="0px" y="0px"
	 viewBox="0 0 887.4 272.7" style="enable-background:new 0 0 887.4 272.7;" xml:space="preserve">
<style type="text/css">
	.st0{display:none;}
	.st1{display:inline;}
	.st2{fill:#FFFFFF;}
	.st3{fill:none;stroke:#000000;stroke-miterlimit:10;}
	.st4{font-family:'AdobeMingStd-Light-B5pc-H';}
	.st5{font-size:112.3111px;}
	.st6{fill:none;}
</style>
<g id="图层_1" class="st0">
	<g class="st1">
		<g>
			<g>
				<circle cx="721.8" cy="98.2" r="13.5"/>
				<ellipse transform="matrix(0.1602 -0.9871 0.9871 0.1602 326.8292 580.4617)" cx="504.5" cy="98.2" rx="13.5" ry="13.5"/>
			</g>
			<g>
				<g>
					<path d="M667,38.4H561.2c-2.1,0-3.8,1.7-3.8,3.8v111.9c0,2.1,1.7,3.8,3.8,3.8H667c1.1,0,2-0.9,2-2v-14.3c0-1.1-0.9-2-2-2h-85.9
						c-2.1,0-3.8-1.7-3.8-3.8V60.5c0-2.1,1.7-3.8,3.8-3.8H667c1.1,0,2-0.9,2-2V40.4C669,39.3,668.1,38.4,667,38.4z"/>
					<path d="M606.3,133l16.3-20.7c0.3-0.3,0.7-0.3,1,0l16.3,20.7c0.4,0.5,1,0.8,1.6,0.8h21c0.5,0,0.8-0.6,0.5-1.1l-27.6-35
						c-0.4-0.5-0.4-1.2,0-1.6l25.5-32.4c0.3-0.4,0-1.1-0.5-1.1h-21.7c-0.2,0-0.4,0.1-0.5,0.2l-14.7,18.6c-0.3,0.3-0.7,0.3-1,0
						l-14.7-18.6c-0.1-0.2-0.3-0.2-0.5-0.2h-21.7c-0.5,0-0.8,0.7-0.5,1.1L610.8,96c0.4,0.5,0.4,1.2,0,1.6l-27.6,35
						c-0.3,0.4,0,1.1,0.5,1.1h21C605.3,133.7,605.9,133.4,606.3,133z"/>
				</g>
				<path d="M450.3,66.5h-12.4c-0.5,0-0.7-0.5-0.5-0.9l13.1-25.2c0.5-1.1-0.2-2.3-1.4-2.3l-52.5-0.2c-1.2,0-2.3,0.7-2.8,1.8
					l-4.6,9.3l-4.3,8.7c-0.5,1.1,0.2,2.3,1.4,2.3h18.4c0.2,0,0.4-0.1,0.5-0.3l2.9-5.8c0.2-0.4,0.6-0.7,1.1-0.7h15.9
					c0.3,0,0.4,0.3,0.3,0.5L418.3,66c-0.2,0.3-0.6,0.6-1,0.6h-32.5c-0.9,0-1.6,0.7-1.6,1.6v88.1c0,1.1,0.9,2.1,2.1,2.1h64.5
					c1,0,1.9-0.9,1.9-1.9v-14.6c0-1.1-0.9-1.9-1.9-1.9H401c-0.6,0-1.1-0.5-1.1-1.2v-9.2c0-0.6,0.5-1.2,1.1-1.2h49
					c0.9,0,1.5-0.7,1.5-1.6V85V67.9C451.6,67.2,451,66.5,450.3,66.5z M435,113.2c0,0.6-0.5,1.1-1.1,1.1h-32.6
					c-0.8,0-1.4-0.6-1.4-1.4V85.5c0-0.3,0.2-0.5,0.5-0.5h8.7c0.3,0,0.5,0.2,0.5,0.5v21.3c0,0.9,0.7,1.6,1.5,1.6h12.5
					c0.8,0,1.5-0.7,1.5-1.6V85.5c0-0.3,0.2-0.5,0.5-0.5h8.7c0.3,0,0.5,0.2,0.5,0.5L435,113.2L435,113.2z"/>
				<g>
					<path d="M839.3,59.8v-4.5c0-0.3,0.3-0.6,0.6-0.6h34.7c0.8,0,1.4-0.6,1.4-1.4V39.1c0-0.7-0.5-1.2-1.2-1.2h-88.6
						c-0.7,0-1.2,0.5-1.2,1.2v14.1c0,0.8,0.6,1.4,1.4,1.4h34.7c0.3,0,0.6,0.3,0.6,0.6v4.5c0,0.3-0.3,0.6-0.6,0.6h-45
						c-0.8,0-1.4,0.6-1.4,1.4v28.9c0,0.7,0.5,1.2,1.2,1.2h13.7c0.7,0,1.2-0.6,1.2-1.2V77.2c0-1.2,0.9-2.2,2.1-2.2h28.2
						c0.3,0,0.6,0.3,0.6,0.6v3.1c0,0.4-0.2,0.7-0.4,0.9l-7.8,6.5c-0.2,0.1-0.4,0-0.4-0.2v-3.9c0-0.7-0.5-1.2-1.2-1.2h-13.5
						c-0.7,0-1.2,0.6-1.2,1.2v16.7c0,0.5-0.2,0.9-0.6,1.2l-9.2,7.6l-10.3,8.5c-0.3,0.2-0.4,0.6-0.4,0.9v19.8c0,0.7,0.8,1.1,1.4,0.7
						l51.7-42.8c0.4-0.4,1-0.4,1.5,0l51.6,42.7c0.6,0.5,1.4,0.1,1.4-0.7V117c0-0.4-0.2-0.7-0.4-0.9l-8.2-6.7l-11.4-9.4
						c-0.4-0.3-0.6-0.8-0.6-1.2V82.1c0-0.7-0.5-1.2-1.2-1.2h-13.4c-0.7,0-1.2,0.6-1.2,1.2v3.8c0,0.2-0.2,0.3-0.4,0.2l-7.8-6.5
						c-0.3-0.2-0.4-0.6-0.4-0.9v-3c0-0.3,0.3-0.6,0.6-0.6h28.2c1.1,0,2.1,1,2.1,2.2v13.6c0,0.7,0.5,1.2,1.2,1.2h13.7
						c0.7,0,1.2-0.6,1.2-1.2V61.9c0-0.8-0.6-1.4-1.4-1.4h-45C839.6,60.5,839.3,60.2,839.3,59.8z"/>
					<path d="M822.6,117.3h-10.2c-0.3,0-0.5,0.1-0.7,0.2l-2,1.6l-15.8,13.1c-0.7,0.6-0.3,1.7,0.6,1.7h48.6c0.4,0,0.6,0.5,0.3,0.8
						l-5.3,5.3c-0.2,0.2-0.6,0.4-0.9,0.4h-26.8c-0.7,0-1.3,0.6-1.3,1.3v15.4c0,0.6,0.5,1.2,1.1,1.2h30c0.3,0,0.6-0.1,0.8-0.3
						l13.9-14.3l10.9-11.2c0.4-0.5,0.4-1.2-0.1-1.6l-15.9-13.1c-0.3-0.3-0.7-0.4-1.1-0.4h-5.3"/>
					<path d="M819,114.6l16.9,14l9.5-11l-15-12.4c-0.6-0.5-1.5-0.5-2.2,0l-9.3,7.7C818.5,113.4,818.5,114.2,819,114.6z"/>
				</g>
				<path d="M341.6,158.4h35.6c0.8,0,1.5-0.7,1.5-1.5v-15.4c0-0.9-0.7-1.5-1.5-1.5h-15.9c-0.6,0-1.1-0.7-0.9-1.3l18.6-53.6
					c0.4-1-0.4-2.1-1.4-2.1h-11.2c-0.4,0-0.7-0.4-0.5-0.8L380.7,40c0.4-1-0.4-2.1-1.4-2.1h-18.9c-0.6,0-1.2,0.4-1.4,1l-22.6,64.9
					c-0.4,1,0.4,2.1,1.4,2.1H351c0.5,0,0.8,0.5,0.6,0.9l-11.4,32.8c-0.1,0.2-0.1,0.4-0.1,0.5l0,16.6
					C340.1,157.7,340.8,158.4,341.6,158.4z"/>
			</g>
		</g>
		<g>
			<g>
				<path d="M672.7,189v27.3c0,0.1,0,0.1,0.1,0.1h5.5c0.1,0,0.1,0,0.1-0.1v-21.9c0-0.1,0-0.1,0.1-0.1h12c1.8,0,3.3,1.5,3.3,3.3v18.7
					c0,0.1,0,0.1,0.1,0.1h5.5c0.1,0,0.1,0,0.1-0.1v-22c0-3.4-2.7-6.1-6.1-6.1h-19.8C673.1,188.2,672.7,188.6,672.7,189z"/>
				<path d="M605.1,212.1v3.5c0,0.4,0.3,0.8,0.8,0.8h25.7c0.4,0,0.8-0.4,0.8-0.8v-3.1c0-0.4-0.3-0.8-0.8-0.8h-17.1
					c-0.4,0-0.6-0.5-0.3-0.8l18-17.9c0.2-0.1,0.2-0.4,0.2-0.6V189c0-0.4-0.3-0.8-0.8-0.8h-25.7c-0.4,0-0.8,0.4-0.8,0.8v3.1
					c0,0.4,0.3,0.8,0.8,0.8h16.3c0.7,0,1.1,0.9,0.6,1.4l-17.5,17.4C605.2,211.7,605.1,211.9,605.1,212.1z"/>
				<path d="M707,189.3v26.1c0,0.6,0.5,1.1,1,1.1h25.2c0.6,0,1-0.5,1-1.1v-2.5c0-0.6-0.5-1.1-1-1.1h-19.6c-0.6,0-1-0.5-1-1.1v-16.8
					c0-0.6,0.5-1.1,1-1.1h13.7c0.5,0,0.8,0.4,0.8,0.8v1.1c0,0.3-0.2,0.6-0.4,0.8l-9.8,7c-0.5,0.3-0.6,1-0.2,1.5l2.3,3.2
					c0.3,0.5,1,0.6,1.5,0.2l12-8.5c0.5-0.4,0.8-0.9,0.8-1.6v-8.1c0-0.6-0.5-1.1-1-1.1h-25.2C707.5,188.2,707,188.7,707,189.3z"/>
				<path d="M658.5,188.2h-11.8c-4.1,0-7.5,3.4-7.5,7.5v13.2c0,4.1,3.4,7.5,7.5,7.5h11.8c4.1,0,7.5-3.4,7.5-7.5v-13.2
					C666,191.6,662.6,188.2,658.5,188.2z M660.3,207.6c0,1.8-1.4,3.2-3.2,3.2H648c-1.8,0-3.2-1.4-3.2-3.2V197c0-1.8,1.4-3.2,3.2-3.2
					h9.1c1.8,0,3.2,1.4,3.2,3.2V207.6z"/>
			</g>
			<g>
				<path d="M762.7,212.1v3.5c0,0.4,0.3,0.8,0.8,0.8h25.7c0.4,0,0.8-0.4,0.8-0.8v-3.1c0-0.4-0.3-0.8-0.8-0.8h-17.1
					c-0.4,0-0.6-0.5-0.3-0.8l18-17.9c0.2-0.1,0.2-0.4,0.2-0.6V189c0-0.4-0.3-0.8-0.8-0.8h-25.7c-0.4,0-0.8,0.4-0.8,0.8v3.1
					c0,0.4,0.3,0.8,0.8,0.8h16.3c0.7,0,1.1,0.9,0.6,1.4L763,211.5C762.8,211.7,762.7,211.9,762.7,212.1z"/>
				<path d="M798.5,189.3v26.1c0,0.6,0.5,1.1,1,1.1h25.2c0.6,0,1-0.5,1-1.1v-2.5c0-0.6-0.5-1.1-1-1.1h-19.6c-0.6,0-1-0.5-1-1.1
					v-16.8c0-0.6,0.5-1.1,1-1.1H819c0.5,0,0.8,0.4,0.8,0.8v1.1c0,0.3-0.2,0.6-0.4,0.8l-9.8,7c-0.5,0.3-0.6,1-0.2,1.5l2.3,3.2
					c0.3,0.5,1,0.6,1.5,0.2l12-8.5c0.5-0.4,0.8-0.9,0.8-1.6v-8.1c0-0.6-0.5-1.1-1-1.1h-25.2C799,188.2,798.5,188.7,798.5,189.3z"/>
				<path d="M879.9,188.2h-11.8c-4.1,0-7.5,3.4-7.5,7.5v13.2c0,4.1,3.4,7.5,7.5,7.5h11.8c4.1,0,7.5-3.4,7.5-7.5v-13.2
					C887.4,191.6,884,188.2,879.9,188.2z M881.7,207.6c0,1.8-1.4,3.2-3.2,3.2h-9.1c-1.8,0-3.2-1.4-3.2-3.2V197
					c0-1.8,1.4-3.2,3.2-3.2h9.1c1.8,0,3.2,1.4,3.2,3.2V207.6z"/>
				<path d="M853.6,188.2h-11.2c-3.9,0-7.1,3.2-7.1,7.1v21.1h6v-19.2c0-2.2,1.8-3.9,4-3.9h8.5L853.6,188.2L853.6,188.2z"/>
			</g>
			<g>
				<path d="M408.9,189v27.3c0,0.1,0,0.1,0.1,0.1h5.5c0.1,0,0.1,0,0.1-0.1v-21.9c0-0.1,0-0.1,0.1-0.1h12c1.8,0,3.3,1.5,3.3,3.3v18.7
					c0,0.1,0,0.1,0.1,0.1h5.5c0.1,0,0.1,0,0.1-0.1v-22c0-3.4-2.7-6.1-6.1-6.1h-19.8C409.3,188.2,408.9,188.6,408.9,189z"/>
				<path d="M336.4,212.1v3.5c0,0.4,0.4,0.8,0.8,0.8h25.7c0.4,0,0.8-0.4,0.8-0.8v-3.1c0-0.4-0.4-0.8-0.8-0.8h-17.1
					c-0.4,0-0.6-0.5-0.3-0.8l18-17.9c0.1-0.1,0.2-0.4,0.2-0.6V189c0-0.4-0.4-0.8-0.8-0.8h-25.7c-0.4,0-0.8,0.4-0.8,0.8v3.1
					c0,0.4,0.4,0.8,0.8,0.8h16.4c0.7,0,1.1,0.9,0.6,1.4l-17.5,17.4C336.5,211.7,336.4,211.9,336.4,212.1z"/>
				<path d="M372.5,189.3v26.1c0,0.6,0.5,1.1,1,1.1h25.2c0.6,0,1-0.5,1-1.1v-2.5c0-0.6-0.5-1.1-1-1.1h-19.6c-0.6,0-1-0.5-1-1.1
					v-16.8c0-0.6,0.5-1.1,1-1.1h13.7c0.5,0,0.8,0.4,0.8,0.8v1.1c0,0.3-0.2,0.6-0.4,0.8l-9.8,7c-0.5,0.3-0.6,1-0.2,1.5l2.3,3.2
					c0.3,0.5,1,0.6,1.5,0.2l12-8.5c0.5-0.4,0.8-0.9,0.8-1.6v-8.1c0-0.6-0.5-1.1-1-1.1h-25.2C373,188.2,372.5,188.7,372.5,189.3z"/>
				<path d="M543.9,192.7v-3.2c0-0.5-0.4-0.9-0.9-0.9h-24.8c-0.5,0-0.9,0.4-0.9,0.9v14.6c0,0.5,0.4,0.9,0.9,0.9h19.3
					c0.5,0,0.9,0.4,0.9,0.9v4.6c0,0.5-0.4,0.9-0.9,0.9h-19.3c-0.5,0-0.9,0.4-0.9,0.9v3.2c0,0.5,0.4,0.9,0.9,0.9H543
					c0.5,0,0.9-0.4,0.9-0.9v-14.6c0-0.5-0.4-0.9-0.9-0.9h-19.3c-0.5,0-0.9-0.4-0.9-0.9v-4.6c0-0.5,0.4-0.9,0.9-0.9H543
					C543.5,193.6,543.9,193.2,543.9,192.7z"/>
				<path d="M580,192.7v-3.2c0-0.5-0.4-0.9-0.9-0.9h-24.8c-0.5,0-0.9,0.4-0.9,0.9v14.6c0,0.5,0.4,0.9,0.9,0.9h19.3
					c0.5,0,0.9,0.4,0.9,0.9v4.6c0,0.5-0.4,0.9-0.9,0.9h-19.3c-0.5,0-0.9,0.4-0.9,0.9v3.2c0,0.5,0.4,0.9,0.9,0.9h24.8
					c0.5,0,0.9-0.4,0.9-0.9v-14.6c0-0.5-0.4-0.9-0.9-0.9h-19.3c-0.5,0-0.9-0.4-0.9-0.9v-4.6c0-0.5,0.4-0.9,0.9-0.9h19.3
					C579.6,193.6,580,193.2,580,192.7z"/>
				<path d="M450.7,209.9v-20.7c0-0.4-0.4-0.8-0.8-0.8h-4c-0.5,0-0.8,0.4-0.8,0.8v25.7c0,0.7,0.6,1.3,1.3,1.3h24.5
					c0.5,0,0.8-0.4,0.8-0.8V212c0-0.4-0.4-0.8-0.8-0.8H452C451.3,211.2,450.7,210.6,450.7,209.9z"/>
				<path d="M480.8,189.3v26.1c0,0.6,0.5,1.1,1,1.1h25.2c0.6,0,1-0.5,1-1.1v-2.5c0-0.6-0.5-1.1-1-1.1h-19.6c-0.6,0-1-0.5-1-1.1
					v-16.8c0-0.6,0.5-1.1,1-1.1h13.7c0.5,0,0.8,0.4,0.8,0.8v1.1c0,0.3-0.2,0.6-0.4,0.8l-9.8,7c-0.5,0.3-0.6,1-0.2,1.5l2.3,3.2
					c0.3,0.5,1,0.6,1.5,0.2l12-8.5c0.5-0.4,0.8-0.9,0.8-1.6v-8.1c0-0.6-0.5-1.1-1-1.1h-25.2C481.3,188.2,480.8,188.7,480.8,189.3z"
					/>
			</g>
		</g>
		<g>
			<path class="st2" d="M239.8,151.4l-17.7,1.6c-1.1,0.1-1.9-1.1-1.5-2.1l13.7-28.6c0.5-1.1,0.6-2.2,0.4-3.4l-10.4-42.2
				c-0.5-1.9-2.2-3.2-4.2-3.1l-26.7,1.2c-1.2,0.1-2-1.3-1.3-2.3L215,36.7c0.6-1,0.8-2.2,0.6-3.3l-7.4-30.7c-0.4-1.5-1.7-2.6-3.3-2.6
				L30.7,0.3c-2.5,0-4.8,1.6-5.7,4L0.5,68.6c-0.5,1.3-0.6,2.6-0.5,4l5,40c0.1,0.8,0.8,1.3,1.5,1.2l18.9-1.8c0.8-0.1,1.4,0.7,1.1,1.4
				L11.7,149c-0.6,1.3-0.7,2.8-0.5,4.2l5.6,37.3c0.1,1,1.1,1.8,2.1,1.7l20.8-1.8c0.8-0.1,1.4,0.8,1,1.6L23,225.6
				c-0.4,0.8-0.6,1.8-0.5,2.7l5.8,42c0.2,1.5,1.6,2.5,3.1,2.4l167.2-22.7c0.7-0.1,1.3-0.4,1.8-0.8l53.4-42c1.7-1.3,2.4-3.5,1.9-5.6
				l-12.4-47.8C243,152.3,241.4,151.2,239.8,151.4z"/>
			<g>
				<path d="M234.9,163.3l7.3,32l-66,7l-17.3,1.9L89.5,212l-15.6,1.7l-6.1-36.9l35.8-55l-44.4,2.9l-5.7-34.3L89.3,40l-44.1,1
					l-5-30.2l157.4-1l5.3,22.2l-88.5,142.2l38-3.6l30.3-53.9l-24,1.6L181,85.9l34.4-1.7l7.9,32.9l-24.3,49.5L234.9,163.3z
					 M134.1,39.1L100,89.8l25.4-1.2l32.6-50L134.1,39.1"/>
			</g>
		</g>
	</g>
</g>
<g id="圖層_2">
	<line class="st3" x1="89.5" y1="33.3" x2="89.5" y2="204.3"/>
	<line class="st3" x1="138" y1="33.3" x2="135" y2="204.3"/>
	<line class="st3" x1="89.5" y1="33.3" x2="138" y2="33.3"/>
	<line class="st3" x1="89.5" y1="204.3" x2="222" y2="204.3"/>
	<line class="st3" x1="136.5" y1="146.3" x2="222" y2="147.3"/>
	<line class="st3" x1="222" y1="204.3" x2="222" y2="147.3"/>
	<text transform="matrix(1.1038 0 0 1 277.084 184.8999)" class="st4 st5">這是LOGO</text>
	<rect x="400" y="86.3" class="st6" width="1" height="6"/>
</g>
</svg>
